<?xml version="1.0" encoding="UTF-8"?>
<svg width="96px" height="115px" viewBox="0 0 96 115" version="1.1" xmlns="http://www.w3.org/2000/svg" xmlns:xlink="http://www.w3.org/1999/xlink">
    <title>编组</title>
    <defs>
        <filter color-interpolation-filters="auto" id="filter-1">
            <feColorMatrix in="SourceGraphic" type="matrix" values="0 0 0 0 1.000000 0 0 0 0 0.823529 0 0 0 0 0.490196 0 0 0 1.000000 0"></feColorMatrix>
        </filter>
    </defs>
    <g id="页面-1" stroke="none" stroke-width="1" fill="none" fill-rule="evenodd">
        <g filter="url(#filter-1)" id="编组">
            <g>
                <path d="M43.84766,24.8535 C44.67776,24.8535 45.31246,24.2675 45.41016,23.4375 C46.63086,15.6738 46.58206,15.6738 54.88286,14.0136 C55.76176,13.8672 56.34766,13.2812 56.34766,12.4511 C56.34766,11.5722 55.71286,10.9863 54.83396,10.8398 C46.58206,9.6191 46.63086,9.5214 45.41016,1.4648 C45.31246,0.6347 44.67776,0 43.84766,0 C42.96876,0 42.38286,0.6347 42.28516,1.5136 C41.16206,9.1797 41.16206,9.1797 32.76366,10.8398 C31.93356,11.0351 31.34766,11.5722 31.34766,12.4511 C31.34766,13.2812 31.93356,13.8672 32.91016,14.0136 C41.06446,15.4785 41.11326,15.4785 42.28516,23.3886 C42.38286,24.2675 42.96876,24.8535 43.84766,24.8535 Z M19.97066,60.8886 C21.28906,60.8886 22.36326,59.9121 22.50976,58.6425 C24.16996,46.0937 24.31636,45.8984 37.74416,43.5058 C39.06246,43.3105 39.94136,42.2851 39.94136,40.9668 C39.94136,39.6484 39.01366,38.5742 37.69526,38.4277 C24.46286,36.6699 24.16996,36.3769 22.50976,23.3886 C22.36326,22.0214 21.33786,21.0449 19.97066,21.0449 C18.60356,21.0449 17.57816,22.0214 17.43166,23.4375 C15.91796,35.9375 15.62496,36.084 2.19726,38.4277 C0.92776,38.6718 0,39.6484 0,40.9668 C0,42.334 0.92776,43.3105 2.49026,43.5058 C15.52736,45.459 15.91796,45.8984 17.43166,58.4961 C17.57816,59.9121 18.60356,60.8886 19.97066,60.8886 Z M56.24996,114.5507 C58.10546,114.5507 59.61916,113.1836 59.86326,111.2304 C63.57426,85.6445 67.08986,81.4453 92.48006,78.5644 C94.48206,78.3691 95.89806,76.7578 95.89806,74.9023 C95.89806,72.998 94.48206,71.4843 92.48006,71.1914 C67.67576,67.8222 64.20896,64.5507 59.86326,38.5254 C59.57026,36.5722 58.05666,35.205 56.24996,35.205 C54.34566,35.205 52.88086,36.5722 52.58786,38.5254 C48.92576,64.1113 45.36136,68.3105 20.01956,71.1914 C18.01756,71.4355 16.60156,72.998 16.60156,74.9023 C16.60156,76.7578 18.01756,78.3203 20.01956,78.5644 C44.77536,82.08 48.24216,85.205 52.58786,111.2304 C52.92966,113.1836 54.39456,114.5507 56.24996,114.5507 Z" id="形状" fill="#000000" fill-rule="nonzero"></path>
            </g>
        </g>
    </g>
</svg>